<?xml version="1.0" standalone="no"?>
<!DOCTYPE svg PUBLIC "-//W3C//DTD SVG 20010904//EN"
 "http://www.w3.org/TR/2001/REC-SVG-20010904/DTD/svg10.dtd">
<svg version="1.0" xmlns="http://www.w3.org/2000/svg"
 width="671.000000pt" height="671.000000pt" viewBox="0 0 671.000000 671.000000"
 preserveAspectRatio="xMidYMid meet">

<g transform="translate(0.000000,671.000000) scale(0.100000,-0.100000)"
fill="#000000" stroke="none">
<path d="M0 3355 l0 -3355 3355 0 3355 0 0 3355 0 3355 -3355 0 -3355 0 0
-3355z m3880 1565 c7 -18 10 -44 5 -66 -5 -30 -2 -41 16 -60 12 -13 30 -24 40
-24 9 0 20 -7 23 -16 7 -19 -3 -92 -17 -119 -6 -11 -13 -35 -16 -54 -4 -19
-11 -36 -17 -38 -17 -6 -67 94 -56 113 5 8 7 57 4 109 -2 63 0 95 8 100 7 4 8
11 2 18 -12 16 -21 67 -12 67 4 0 13 -13 20 -30z m-180 -185 c0 -8 -4 -15 -10
-15 -5 0 -10 7 -10 15 0 8 5 15 10 15 6 0 10 -7 10 -15z m182 -217 c-9 -9 -12
-7 -12 12 0 19 3 21 12 12 9 -9 9 -15 0 -24z m-685 -70 c-3 -8 -6 -5 -6 6 -1
11 2 17 5 13 3 -3 4 -12 1 -19z m58 -86 c22 -20 36 -34 31 -29 -6 4 -19 7 -30
7 -23 0 -56 27 -56 47 0 20 12 15 55 -25z m628 23 c-3 -9 -8 -14 -10 -11 -3 3
-2 9 2 15 9 16 15 13 8 -4z m54 -507 c-2 -29 -3 -8 -3 47 0 55 1 79 3 53 2
-26 2 -71 0 -100z m3 -62 c0 -3 -4 -8 -10 -11 -5 -3 -10 -1 -10 4 0 6 5 11 10
11 6 0 10 -2 10 -4z m-630 -1116 c0 -5 -5 -10 -11 -10 -5 0 -7 5 -4 10 3 6 8
10 11 10 2 0 4 -4 4 -10z m1497 -52 c-3 -8 -6 -5 -6 6 -1 11 2 17 5 13 3 -3 4
-12 1 -19z m188 -595 c4 -21 3 -33 -4 -33 -6 0 -11 4 -11 9 0 5 -3 24 -6 42
-9 44 11 27 21 -18z m-965 -92 c0 -11 -29 -35 -35 -29 -10 9 7 38 21 38 8 0
14 -4 14 -9z m40 -25 c0 -3 -4 -8 -10 -11 -5 -3 -10 -1 -10 4 0 6 5 11 10 11
6 0 10 -2 10 -4z m920 -11 c0 -8 -4 -15 -10 -15 -5 0 -10 7 -10 15 0 8 5 15
10 15 6 0 10 -7 10 -15z m60 -75 c0 -11 5 -20 10 -20 6 0 10 -4 10 -10 0 -5
-7 -10 -16 -10 -10 0 -14 -6 -11 -15 11 -28 -11 -25 -37 6 -32 37 -32 41 -3
55 34 18 47 16 47 -6z m-820 -144 c0 -2 -7 -6 -15 -10 -8 -3 -15 -1 -15 4 0 6
7 10 15 10 8 0 15 -2 15 -4z m-2681 -395 c10 -6 10 -10 1 -16 -7 -4 -19 0 -28
9 -14 13 -14 16 -2 16 8 0 21 -4 29 -9z"/>
</g>
</svg>
